HIERARCHY
ROOT Hips
{
	OFFSET 0.000000 0.000000 0.000000
	CHANNELS 6 Xposition Yposition Zposition Zrotation Xrotation Yrotation
	JOINT RightUpLeg
	{
		OFFSET -10.795800 0.000000 0.000000
		CHANNELS 3 Zrotation Xrotation Yrotation
		JOINT RightLeg
		{
			OFFSET 0.000000 -39.557900 0.000000
			CHANNELS 3 Zrotation Xrotation Yrotation
			JOINT RightFoot
			{
				OFFSET 0.000000 -40.613400 0.000000
				CHANNELS 3 Zrotation Xrotation Yrotation
				JOINT RightToe
				{
					OFFSET 0.000000 -1.003500 12.392200
					CHANNELS 3 Zrotation Xrotation Yrotation
					JOINT RightToeEnd
					{
						OFFSET 0.000000 1.088300 5.767000
						CHANNELS 3 Zrotation Xrotation Yrotation
						End Site
						{
						    OFFSET 0.000000 0.927200 4.913300
						}
					}
				}
			}
		}
	}
	JOINT LeftUpLeg
	{
		OFFSET 10.795800 0.000000 0.000000
		CHANNELS 3 Zrotation Xrotation Yrotation
		JOINT LeftLeg
		{
			OFFSET 0.000000 -39.557900 0.000000
			CHANNELS 3 Zrotation Xrotation Yrotation
			JOINT LeftFoot
			{
				OFFSET 0.000000 -40.613400 0.000000
				CHANNELS 3 Zrotation Xrotation Yrotation
				JOINT LeftToe
				{
					OFFSET 0.000000 -1.003500 12.392200
					CHANNELS 3 Zrotation Xrotation Yrotation
					JOINT LeftToeEnd
					{
						OFFSET 0.000000 1.088300 5.767000
						CHANNELS 3 Zrotation Xrotation Yrotation
						End Site
						{
						    OFFSET 0.000000 0.927200 4.913300
						}
					}
				}
			}
		}
	}
	JOINT Spine
	{
		OFFSET 0.000000 15.108100 0.000000
		CHANNELS 3 Zrotation Xrotation Yrotation
		JOINT Spine1
		{
			OFFSET 0.000000 12.828000 0.000000
			CHANNELS 3 Zrotation Xrotation Yrotation
			JOINT Spine2
			{
				OFFSET 0.000000 11.155500 0.000000
				CHANNELS 3 Zrotation Xrotation Yrotation
				JOINT LeftShoulder
				{
					OFFSET 2.000000 11.155500 0.000000
					CHANNELS 3 Zrotation Xrotation Yrotation
					JOINT LeftArm
					{
						OFFSET 15.139800 0.000000 0.000000
						CHANNELS 3 Zrotation Xrotation Yrotation
						JOINT LeftForeArm
						{
							OFFSET 0.000000 -26.627300 0.000000
							CHANNELS 3 Zrotation Xrotation Yrotation
							JOINT LeftHand
							{
								OFFSET 0.000000 -24.932400 0.000000
								CHANNELS 3 Zrotation Xrotation Yrotation
								JOINT LeftFinger0
								{
									OFFSET 0.000000 -8.640100 0.000000
									CHANNELS 3 Zrotation Xrotation Yrotation
									End Site
									{
									    OFFSET 0.000000 -5.000000 0.000000
									}
								}
							}
						}
					}
				}
				JOINT RightShoulder
				{
					OFFSET -2.000000 11.155500 0.000000
					CHANNELS 3 Zrotation Xrotation Yrotation
					JOINT RightArm
					{
						OFFSET -15.139800 0.000000 0.000000
						CHANNELS 3 Zrotation Xrotation Yrotation
						JOINT RightForeArm
						{
							OFFSET 0.000000 -26.627300 0.000000
							CHANNELS 3 Zrotation Xrotation Yrotation
							JOINT RightHand
							{
								OFFSET 0.000000 -24.932400 0.000000
								CHANNELS 3 Zrotation Xrotation Yrotation
								JOINT RightFinger0
								{
									OFFSET 0.000000 -8.640100 0.000000
									CHANNELS 3 Zrotation Xrotation Yrotation
									End Site
									{
									    OFFSET 0.000000 -5.000000 0.000000
									}
								}
							}
						}
					}
				}
				JOINT Neck
				{
					OFFSET 0.000000 11.155500 0.000000
					CHANNELS 3 Zrotation Xrotation Yrotation
					JOINT Head
					{
						OFFSET 0.000000 10.940000 0.000000
						CHANNELS 3 Zrotation Xrotation Yrotation
						JOINT HeadTip
						{
							OFFSET 0.000000 10.000000 0.000000
							CHANNELS 3 Zrotation Xrotation Yrotation
							End Site
							{
							    OFFSET 0.000000 5.000000 0.000000
							}
						}
					}
				}
			}
		}
	}
}
MOTION
Frames:	12
Frame Time:	0.033332
-17.199400 86.122400 91.418100 6.454016 -2.434313 92.906569 5.299269 7.015457 -12.781044 -0.000000 10.065793 -0.000000 8.492274 -0.711561 -16.667295 0.000000 0.185233 0.000000 -0.000000 0.000000 -0.000000 13.809241 -8.363284 3.742817 0.000000 13.763520 -0.000000 -14.655680 15.780460 15.151688 0.000000 -9.915585 -0.000000 -0.000000 0.000000 0.000000 5.771717 10.430525 5.476349 -0.000000 7.803406 -0.000000 -0.000000 0.000000 -0.000000 -6.742853 0.000000 7.048689 9.714538 0.066810 -0.100649 -0.000000 -3.383914 -0.000000 -14.308196 27.003209 -27.136453 0.000000 0.000000 -0.000000 0.971488 0.000000 -1.972520 -18.486134 -3.769366 17.136244 -0.000061 -21.738065 -0.000012 8.785598 6.402406 8.305826 0.000000 0.000000 -0.000000 -0.000000 0.000000 -0.000000 11.887041 9.632705 33.514661 -0.000000 0.000000 -0.000000 
-17.405100 86.170400 91.718000 6.915375 -2.243098 93.383927 5.488520 7.782314 -13.382696 -0.000000 9.198729 0.000000 8.333047 -0.314808 -16.679910 -0.000000 0.170138 -0.000000 -0.000000 0.000000 0.000000 15.212560 -8.643626 12.343658 -0.000000 15.825767 -0.000000 -13.736734 13.637425 18.657106 -0.000000 -10.220209 0.000000 0.000000 0.000000 -0.000000 5.256355 11.062592 5.864286 -0.000000 8.007628 -0.000000 -0.000000 0.000000 -0.000000 -6.562102 -0.000000 6.541343 5.564068 3.174392 2.864276 0.000000 -4.163226 -0.000000 -20.682077 27.375275 -34.219665 -0.000000 -0.000000 -0.000000 1.083315 0.000000 -2.681721 -18.373624 -3.437729 17.405341 -0.000064 -22.876890 -0.000013 9.061335 6.141633 7.841611 -0.000000 0.000000 0.000000 -0.000000 0.000000 -0.000000 12.477736 8.946297 33.291192 0.000000 0.000000 0.000000 
-17.497500 86.205800 92.127900 7.269521 -2.001158 94.006239 5.762145 8.576043 -14.028146 -0.000000 8.225736 -0.000000 8.142710 0.015372 -16.758542 -0.000000 0.216647 -0.000000 -0.000000 -0.000000 -0.000000 16.937681 -8.902687 20.558771 -0.000000 18.795721 -0.000000 -13.195186 11.879125 21.998161 0.000000 -10.504186 -0.000000 0.000000 0.000000 -0.000000 4.632243 11.167337 6.616757 -0.000000 8.372524 -0.000000 -0.000000 0.000000 -0.000000 -6.177743 0.000000 6.536872 4.809279 4.232328 6.640873 0.000000 -3.301688 0.000000 -32.432037 28.618830 -24.472095 0.000000 0.000000 0.000000 0.954586 -0.000000 -3.127308 -17.941166 -2.513452 17.601146 -0.000069 -24.447668 -0.000015 9.147010 5.798954 7.272768 0.000000 0.000000 -0.000000 -0.000000 0.000000 -0.000000 12.735319 8.878784 32.374029 -0.000000 0.000000 0.000000 
-17.579900 86.203300 92.455600 7.042428 -1.914555 94.453338 5.974983 8.428880 -14.294712 -0.000000 7.966721 0.000000 8.085703 0.072660 -16.897106 -0.000000 0.154636 0.000000 -0.000000 -0.000000 0.000000 18.575300 -9.610972 24.840137 0.000000 22.911878 -0.000000 -12.015984 10.835995 23.782915 -0.000000 -10.891717 -0.000000 0.000000 0.000000 -0.000000 4.308853 10.490095 7.181795 -0.000000 8.628091 0.000000 -0.000000 -0.000000 -0.000000 -6.158968 -0.000000 7.040377 6.523990 4.232426 6.647687 -0.000000 -3.086501 -0.000000 -37.822374 29.135723 -15.722865 0.000000 0.000000 -0.000000 0.397128 0.000000 -2.783204 -17.350852 -1.433953 18.108822 -0.000073 -25.700655 -0.000017 9.341925 5.491967 7.359155 0.000000 -0.000000 -0.000000 -0.000000 -0.000000 -0.000000 11.971588 9.569214 32.131123 -0.000000 0.000000 0.000000 
-17.622400 86.176400 92.632700 6.916582 -1.905370 94.767875 6.062242 8.040995 -14.460332 -0.000000 8.440429 -0.000000 8.065639 -0.133356 -16.967588 -0.000000 0.038701 -0.000000 0.000000 0.000000 -0.000000 19.593407 -9.906270 25.093510 -0.000000 27.126816 -0.000000 -10.991198 10.225360 23.811513 -0.000000 -10.947633 -0.000000 -0.000000 0.000000 -0.000000 4.203605 10.022009 7.297434 -0.000000 8.739856 -0.000000 -0.000000 0.000000 -0.000000 -6.630256 -0.000000 7.647842 9.426660 3.631316 3.720227 0.000000 -4.552820 -0.000000 -31.315544 26.779193 -17.408982 -0.000000 0.000000 -0.000000 -0.107903 -0.000000 -2.108997 -17.186858 -0.993049 19.442636 -0.000076 -26.447560 -0.000018 9.881755 5.506435 7.757871 -0.000000 -0.000000 0.000000 -0.000000 0.000000 -0.000000 10.576411 10.322811 33.055563 0.000000 0.000000 0.000000 
-17.617600 86.135300 92.651100 6.906023 -1.814990 95.215466 5.961724 7.646274 -14.732670 -0.000000 9.258302 -0.000000 8.025369 -0.577648 -17.094493 -0.000000 0.017553 0.000000 0.000000 -0.000000 -0.000000 19.688953 -9.547344 23.209825 0.000000 30.173518 0.000000 -10.706495 10.138890 23.487813 -0.000000 -11.084633 0.000000 -0.000000 0.000000 -0.000000 4.061914 9.805749 7.116489 -0.000000 8.599580 -0.000000 0.000000 -0.000000 0.000000 -7.381191 0.000000 7.795192 12.660393 3.208509 0.168777 -0.000000 -7.769898 -0.000000 -16.741429 22.960988 -23.512731 -0.000000 -0.000000 -0.000000 -0.142340 0.000000 -1.673432 -17.646479 -1.241135 21.175117 -0.000076 -26.571644 -0.000018 10.655086 5.531568 8.064730 -0.000000 0.000000 -0.000000 0.000000 -0.000000 0.000000 9.245763 11.085567 34.370300 0.000000 -0.000000 -0.000000 
-17.563000 86.085000 92.543700 6.940720 -1.764955 95.802531 5.882480 7.439615 -15.061711 -0.000000 9.865043 -0.000000 7.952566 -0.942747 -17.341599 0.000000 -0.017369 -0.000000 -0.000000 0.000000 -0.000000 19.133458 -8.431215 20.415906 -0.000000 31.431461 -0.000000 -11.644533 11.300373 23.117785 -0.000000 -11.238854 -0.000000 -0.000000 0.000000 -0.000000 3.999035 9.535648 6.818597 -0.000000 8.503558 -0.000000 -0.000000 0.000000 -0.000000 -8.135404 0.000000 7.554919 15.958556 2.324705 -1.945033 0.000000 -10.608161 0.000000 -0.933409 17.887356 -28.409379 0.000000 -0.000000 -0.000000 -0.004328 0.000000 -1.610615 -18.167814 -2.004358 22.219229 -0.000075 -26.191935 -0.000017 11.074998 5.763795 8.725856 0.000000 0.000000 -0.000000 -0.000000 0.000000 -0.000000 8.250172 11.768889 35.372906 -0.000000 0.000000 -0.000000 
-17.488000 86.006100 92.332100 6.781235 -1.886280 96.623456 5.945644 7.129596 -15.400940 -0.000000 10.314940 -0.000000 7.977814 -1.331977 -17.791236 -0.000000 -0.046487 -0.000000 -0.000000 -0.000000 0.000000 18.171848 -6.970729 16.638165 -0.000000 30.981096 -0.000000 -18.055668 9.925583 23.262485 -0.000000 -12.780132 0.000000 -0.000000 -0.000000 -0.000000 4.114650 8.967327 6.222436 -0.000000 8.334360 -0.000000 -0.000000 -0.000000 -0.000000 -8.585638 -0.000000 7.340397 19.266327 0.998441 -4.038140 -0.000000 -13.224980 -0.000000 8.678312 14.425029 -25.470174 -0.000000 -0.000000 0.000000 -0.068957 -0.000000 -1.524766 -18.295335 -2.664418 21.797338 -0.000073 -25.625586 -0.000017 10.552381 6.085144 9.661683 -0.000000 -0.000000 -0.000000 -0.000000 -0.000000 -0.000000 7.573770 12.456759 36.044557 -0.000000 0.000000 0.000000 
-17.450000 85.965900 92.002500 6.373215 -1.955568 97.601755 5.832831 6.507171 -15.829399 0.000000 10.872542 -0.000000 8.142574 -1.703915 -18.275059 0.000000 0.060608 -0.000000 -0.000000 0.000000 0.000000 16.824701 -5.330652 12.931303 0.000000 27.744304 -0.000000 -19.202305 7.595321 23.796580 -0.000000 -11.573632 0.000000 -0.000000 0.000000 0.000000 4.103700 8.300392 5.582759 -0.000000 7.928369 -0.000000 0.000000 -0.000000 -0.000000 -8.812280 -0.000000 7.142309 22.538290 -0.910306 -4.657159 -0.000000 -15.764944 -0.000000 8.561577 14.024632 -18.923417 0.000000 -0.000000 0.000000 0.094371 -0.000000 -1.462620 -18.551152 -3.070329 20.229135 -0.000071 -25.173475 -0.000016 9.500951 6.009744 9.542081 0.000000 -0.000000 -0.000000 0.000000 -0.000000 -0.000000 7.339539 13.066072 36.402861 -0.000000 -0.000000 -0.000000 
-17.460400 86.010900 91.588500 5.812671 -1.664377 98.569025 5.250548 5.664552 -16.129523 -0.000000 11.628677 -0.000000 8.329550 -2.065207 -18.906543 -0.000000 0.118325 0.000000 -0.000000 0.000000 -0.000000 15.364074 -3.699229 11.150965 -0.000000 23.053830 -0.000000 -18.815678 6.578588 24.643794 0.000000 -9.501480 -0.000000 -0.000000 0.000000 0.000000 3.486681 7.577603 5.226445 0.000000 7.584937 -0.000000 -0.000000 -0.000000 0.000000 -8.717316 -0.000000 6.789338 25.360994 -3.633408 -3.896252 -0.000000 -17.612032 -0.000000 2.561689 14.145388 -14.166828 -0.000000 0.000000 -0.000000 0.939887 -0.000000 -1.518012 -19.329871 -3.457971 18.337673 -0.000071 -24.933430 -0.000016 8.440241 5.744895 8.930159 -0.000000 0.000000 -0.000000 -0.000000 -0.000000 0.000000 7.840713 13.318171 36.499315 0.000000 -0.000000 -0.000000 
-17.578300 86.091000 91.109300 4.984866 -1.157540 99.676639 4.311149 4.443637 -16.551959 -0.000000 12.621502 -0.000000 8.571632 -2.458416 -19.498102 0.000000 0.087091 -0.000000 0.000000 -0.000000 0.000000 14.072920 -2.834108 12.133707 0.000000 19.226572 -0.000000 -17.572098 7.159735 23.824474 0.000000 -8.747989 -0.000000 -0.000000 0.000000 -0.000000 2.498689 6.760216 4.787598 0.000000 7.203852 -0.000000 0.000000 0.000000 0.000000 -8.260833 -0.000000 6.291665 27.596400 -6.716751 -4.058770 0.000000 -19.106034 0.000000 -3.132384 13.791064 -12.598326 -0.000000 -0.000000 0.000000 1.950714 0.000000 -1.453020 -20.222523 -3.831840 16.599070 -0.000071 -24.895418 -0.000016 7.807092 5.544050 8.094478 -0.000000 -0.000000 -0.000000 0.000000 0.000000 0.000000 8.644755 13.388779 36.578095 -0.000000 0.000000 -0.000000 
-17.772600 86.171000 90.631200 4.162268 -0.681234 101.006356 3.360785 3.240206 -17.213253 -0.000000 13.581155 -0.000000 8.830376 -2.810375 -20.063934 -0.000000 0.082417 -0.000000 -0.000000 -0.000000 -0.000000 13.058623 -2.537186 12.640511 -0.000000 16.427141 -0.000000 -17.452528 8.046285 22.312122 -0.000000 -8.356180 0.000000 -0.000000 -0.000000 -0.000000 1.518599 6.167302 4.036106 -0.000000 6.805683 -0.000000 -0.000000 0.000000 -0.000000 -7.565543 -0.000000 5.559675 29.342459 -9.742791 -5.545469 -0.000000 -20.961339 -0.000000 -5.252916 13.207526 -13.630652 0.000000 -0.000000 -0.000000 2.663528 0.000000 -1.333100 -20.778897 -4.404511 15.560453 -0.000070 -24.873857 -0.000016 7.272349 5.395295 7.698180 0.000000 -0.000000 -0.000000 -0.000000 0.000000 -0.000000 9.338393 13.171796 36.698670 -0.000000 -0.000000 -0.000000 
